<?xml version="1.0" encoding="utf-8"?>
<!-- Generator: Adobe Illustrator 15.0.0, SVG Export Plug-In . SVG Version: 6.00 Build 0)  -->
<!DOCTYPE svg PUBLIC "-//W3C//DTD SVG 1.1//EN" "http://www.w3.org/Graphics/SVG/1.1/DTD/svg11.dtd">
<svg version="1.1" id="Слой_1" xmlns="http://www.w3.org/2000/svg" xmlns:xlink="http://www.w3.org/1999/xlink" x="0px" y="0px"
	 width="230.945px" height="183.531px" viewBox="0 0 230.945 183.531" enable-background="new 0 0 230.945 183.531"
	 xml:space="preserve">
<g>
	<circle fill="#5EC7C4" cx="125.329" cy="104.581" r="22.871"/>
	
		<linearGradient id="SVGID_1_" gradientUnits="userSpaceOnUse" x1="105.887" y1="94.5579" x2="138.1716" y2="94.5579" gradientTransform="matrix(1 0 0 -1 -0.0151 183.231)">
		<stop  offset="0" style="stop-color:#E1F4F4"/>
		<stop  offset="1" style="stop-color:#9EDDDB"/>
	</linearGradient>
	<path fill="url(#SVGID_1_)" d="M105.872,92.561c3.6,1.961,7.728,3.076,12.114,3.076c8.228,0,15.537-3.921,20.17-9.994
		c-3.658-2.482-8.072-3.934-12.826-3.934C117.108,81.708,109.903,86.049,105.872,92.561z"/>
	<path fill="#35235D" d="M61.833,89.451h19.39l-0.032,2.951L66.767,114.62l-1.977,2.936l3.004,0.044h14.089v2.491H61.479v-2.71
		l14.747-22.469l1.948-2.971H74.64H61.833V89.451z"/>
	<path fill="#35235D" d="M84.732,108.902c0-3.321,0.875-6.046,2.623-8.174c1.865-2.272,4.442-3.409,7.736-3.409
		c3.264,0,5.843,1.137,7.736,3.409c1.749,2.127,2.623,4.853,2.623,8.174c0,3.322-0.874,6.032-2.623,8.13
		c-1.895,2.273-4.473,3.409-7.736,3.409s-5.843-1.136-7.736-3.409C85.607,114.934,84.732,112.224,84.732,108.902z M87.617,108.902
		c0,2.303,0.539,4.299,1.617,5.988c1.37,2.157,3.322,3.235,5.856,3.235c2.507,0,4.443-1.063,5.813-3.191
		c1.107-1.719,1.661-3.729,1.661-6.032c0-2.302-0.54-4.313-1.617-6.031c-1.37-2.156-3.322-3.234-5.857-3.234
		c-2.534,0-4.474,1.064-5.813,3.191C88.17,104.575,87.617,106.6,87.617,108.902z"/>
	<rect x="111.914" y="87.421" fill="#35235D" width="3.017" height="3.854"/>
	<rect x="112.045" y="97.625" fill="#35235D" width="2.753" height="22.467"/>
	<path fill="#35235D" d="M124.808,120.091h-2.753v-17.265l-0.132-5.158h2.448v4.633c0.67-1.428,1.516-2.55,2.535-3.366
		c1.34-1.078,2.972-1.617,4.896-1.617c3.292,0,5.551,1.122,6.774,3.366c0.729,1.34,1.093,3.162,1.093,5.463v13.943h-2.753v-13.813
		c0-2.011-0.189-3.409-0.567-4.195c-0.787-1.631-2.435-2.448-4.939-2.448c-1.981,0-3.577,0.75-4.786,2.251s-1.813,3.213-1.813,5.136
		v13.07H124.808z"/>
	<path fill="#35235D" d="M145.506,86.741h2.754v20.806l0.231,0.014l10.174-9.89l3.584-0.002l-11.06,10.358l12.194,12.063
		l-3.902,0.013l-11.014-11.016l-0.207-0.011v11.015h-2.755V86.741L145.506,86.741z"/>
	<path fill="#35235D" d="M178.755,98.499l-0.175,2.186c-1.689-0.7-3.453-1.049-5.289-1.049c-1.485,0-2.638,0.277-3.453,0.831
		s-1.224,1.326-1.224,2.316c0,1.078,0.35,1.923,1.049,2.534c0.524,0.468,1.711,1.079,3.563,1.836
		c1.85,0.759,3.183,1.458,3.999,2.099c1.544,1.253,2.316,2.855,2.316,4.808c0,1.865-0.655,3.365-1.967,4.502
		c-1.428,1.253-3.453,1.879-6.075,1.879c-2.098,0-4.064-0.335-5.9-1.005l0.175-2.623c0.874,0.409,1.813,0.729,2.818,0.962
		c1.006,0.233,2.004,0.351,2.994,0.351c1.661,0,2.921-0.372,3.781-1.115c0.859-0.743,1.29-1.727,1.29-2.95
		c0-1.253-0.438-2.258-1.312-3.016c-0.408-0.351-1.209-0.787-2.404-1.312c-2.419-1.02-4.051-1.864-4.896-2.535
		c-1.428-1.137-2.142-2.607-2.142-4.414c0-1.603,0.67-2.914,2.011-3.935c1.34-1.02,3.176-1.53,5.507-1.53
		c1.021,0,1.938,0.096,2.754,0.284C176.992,97.792,177.852,98.091,178.755,98.499z"/>
	<path fill="#35235D" d="M64.808,64.9h1.8v8.452h9.924V64.9h1.8v19.113h-1.8v-9.106h-9.924v9.106h-1.8V64.9z"/>
	<path fill="#35235D" d="M93.603,77.524h-9.87c0,1.474,0.436,2.719,1.309,3.735c0.945,1.109,2.19,1.664,3.735,1.664
		c1.127,0,2.381-0.345,3.763-1.037v1.582c-1.292,0.545-2.582,0.818-3.872,0.818c-1.944,0-3.508-0.573-4.689-1.718
		c-1.363-1.309-2.044-3.234-2.044-5.779c0-2.055,0.541-3.731,1.622-5.03c1.082-1.299,2.566-1.95,4.458-1.95
		c2.345,0,3.953,0.945,4.825,2.835c0.51,1.09,0.765,2.536,0.765,4.335L93.603,77.524L93.603,77.524z M83.733,76.079h8.07
		c0-1.2-0.209-2.199-0.626-2.999c-0.637-1.219-1.69-1.827-3.163-1.827c-1.382,0-2.473,0.545-3.272,1.636
		C84.069,73.816,83.733,74.879,83.733,76.079z"/>
	<path fill="#35235D" d="M106.543,63.21h1.717v18.1l0.109,2.703h-1.609l-0.026-2.89c-0.455,0.944-1.036,1.682-1.746,2.209
		c-0.781,0.6-1.672,0.898-2.671,0.898c-1.654,0-3.008-0.5-4.063-1.5c-1.309-1.254-1.963-3.152-1.963-5.699
		c0-2.525,0.655-4.417,1.963-5.67c1.072-1.036,2.428-1.555,4.063-1.555c1.072,0,2.008,0.327,2.808,0.982
		c0.545,0.436,1.019,1.018,1.418,1.745L106.543,63.21L106.543,63.21z M106.543,77.033c0-1.891-0.455-3.362-1.363-4.418
		c-0.781-0.907-1.735-1.362-2.862-1.362s-2.082,0.445-2.863,1.336c-0.909,1.054-1.364,2.535-1.364,4.442
		c0,1.873,0.455,3.337,1.364,4.391c0.781,0.909,1.735,1.364,2.863,1.364c1.091,0,2.035-0.455,2.835-1.364
		C106.08,80.369,106.543,78.905,106.543,77.033z"/>
	<path fill="#35235D" d="M122.029,83.822v-2.316c-0.563,1.018-1.263,1.754-2.1,2.208c-0.637,0.345-1.346,0.519-2.126,0.519
		c-1.8,0-3.235-0.608-4.309-1.827c-1.145-1.291-1.718-3.09-1.718-5.397c0-2.326,0.563-4.126,1.689-5.398
		c1.072-1.199,2.518-1.8,4.336-1.8c0.927,0,1.768,0.272,2.521,0.818c0.754,0.545,1.359,1.309,1.813,2.29l0.108-2.891h1.609
		l-0.109,2.699v11.26c0,2.509-0.882,4.253-2.645,5.235c-1.073,0.6-2.491,0.899-4.253,0.899c-0.709,0-1.354-0.06-1.937-0.178
		c-0.582-0.119-1.189-0.313-1.827-0.586v-1.689c0.618,0.291,1.286,0.531,2.004,0.723c0.719,0.19,1.413,0.286,2.085,0.286
		c1.563,0,2.764-0.438,3.6-1.309C121.611,86.494,122.029,85.313,122.029,83.822z M122.029,77.006c0-1.872-0.455-3.335-1.363-4.391
		c-0.782-0.907-1.735-1.362-2.862-1.362c-1.091,0-2.036,0.455-2.836,1.362c-0.927,1.056-1.391,2.519-1.391,4.391
		c0,1.891,0.455,3.363,1.363,4.417c0.781,0.909,1.735,1.364,2.863,1.364c1.127,0,2.08-0.446,2.862-1.336
		C121.574,80.396,122.029,78.915,122.029,77.006z"/>
	<path fill="#35235D" d="M138.797,77.524h-9.869c0,1.474,0.436,2.719,1.309,3.735c0.945,1.109,2.189,1.664,3.735,1.664
		c1.127,0,2.381-0.345,3.763-1.037v1.582c-1.291,0.545-2.582,0.818-3.871,0.818c-1.945,0-3.508-0.573-4.69-1.718
		c-1.362-1.309-2.045-3.234-2.045-5.779c0-2.055,0.541-3.731,1.622-5.03s2.567-1.95,4.458-1.95c2.346,0,3.954,0.945,4.826,2.835
		c0.509,1.09,0.764,2.536,0.764,4.335L138.797,77.524L138.797,77.524z M128.927,76.079h8.069c0-1.2-0.209-2.199-0.627-2.999
		c-0.636-1.219-1.689-1.827-3.163-1.827c-1.381,0-2.472,0.545-3.271,1.636C129.264,73.816,128.927,74.879,128.927,76.079z"/>
</g>
</svg>
